<svg width="16" height="27" viewBox="0 0 16 27" fill="none" xmlns="http://www.w3.org/2000/svg">
<path d="M1.25519 1.16981C0.891961 1.53315 0.687912 2.02587 0.687912 2.53963C0.687912 3.05338 0.891961 3.5461 1.25519 3.90944L10.8458 13.5001L1.25519 23.0907C0.902255 23.4561 0.706965 23.9455 0.71138 24.4535C0.715795 24.9615 0.919559 25.4475 1.27879 25.8067C1.63802 26.1659 2.12397 26.3697 2.63197 26.3741C3.13998 26.3785 3.62939 26.1832 3.99481 25.8303L14.9552 14.8699C15.3185 14.5065 15.5225 14.0138 15.5225 13.5001C15.5225 12.9863 15.3185 12.4936 14.9552 12.1303L3.99481 1.16981C3.63148 0.806588 3.13875 0.602539 2.625 0.602539C2.11124 0.602539 1.61852 0.806588 1.25519 1.16981Z" fill="black"/>
</svg>
